%FSLAX25Y25*MOMM*%
%IR0*IPPOS*OFA0.00000B0.00000*MIA0B0*SFA1.00000B1.00000*%
%ADD23R,.6X1.25*%
%ADD24R,1.25X.6*%
%ADD22R,.635X1.016*%
%ADD19R,1.25X1.*%
%ADD20R,7.X3.*%
%ADD17R,2.5X2.3*%
%ADD11C,1.*%
%ADD26C,2.1*%
%ADD10C,6.*%
%ADD15C,1.6*%
%ADD21R,1.27X1.524*%
%ADD12R,1.524X1.27*%
%ADD27R,2.1X2.1*%
%ADD14R,.61X.635*%
%ADD16R,.635X.61*%
%ADD13R,1.6X1.6*%
%ADD25R,1.524X1.524*%
%ADD18R,.762X.8636*%
%ADD28C,.3*%
%ADD29C,.5*%
%ADD30C,.6*%
%ADD31C,.75*%
G75*
%LPD*%
G75*
G36*
G01X2209860Y990550D02*
Y4311600D01*
X2963380D01*
Y4100030D01*
X2983560D01*
G02X2991150Y4083120I-3J-10160D01*
G03X3012380Y3918500I82250J-73072D01*
G02Y3901600I-5637J-8450D01*
G03X2963970Y3798650I61019J-91550D01*
G01X2964220Y3796240D01*
X2827730Y3659750D01*
Y3641920D01*
X2756500D01*
X2727550Y3670870D01*
X2419740D01*
X2353940Y3605070D01*
X2236930D01*
Y3418030D01*
X2288130D01*
Y3376470D01*
X2236930D01*
Y3189430D01*
X2288130D01*
Y3147870D01*
X2236930D01*
Y2960830D01*
X2288130D01*
Y2868470D01*
X2236930D01*
Y2681430D01*
X2449370D01*
Y2862810D01*
X2465530D01*
Y2681430D01*
X2677970D01*
Y2732480D01*
X2708080D01*
Y2715730D01*
X2829120D01*
Y2827990D01*
G02X2846460Y2835180I10160J2D01*
G01X2926610Y2755030D01*
X2978130D01*
G03X2993380Y2734540I95286J54998D01*
G01Y2662050D01*
X2860030Y2528700D01*
Y2478570D01*
X2830030D01*
Y2258530D01*
X2910610D01*
X3128260Y2040880D01*
X3197780D01*
Y1918730D01*
X3507820D01*
Y2001980D01*
X3555430D01*
Y1264050D01*
X3746900Y1072580D01*
X4063180D01*
Y1057080D01*
X4241200D01*
X4290390Y1007890D01*
G02X4283200Y990550I-7186J-7181D01*
G01X2209860D01*
G37*
G36*
G01X3050070Y2458390D02*
Y2478570D01*
X3048500D01*
G02X3044910Y2487240I1J5079D01*
G01X3153420Y2595750D01*
Y2734540D01*
G03X3157550Y2739180I-80083J75439D01*
G01X3221180D01*
Y2733500D01*
X3357420D01*
Y2879900D01*
X3221180D01*
Y2874220D01*
X3162770D01*
G03X3134420Y2901600I-89370J-64169D01*
G02Y2918500I5637J8450D01*
G03Y3101600I-61020J91550D01*
G02Y3118500I5637J8450D01*
G03Y3301600I-61020J91550D01*
G02Y3318500I5637J8450D01*
G03X3173740Y3364930I-61025J91544D01*
G01X3212280D01*
Y3349430D01*
X3413150D01*
X3447480Y3315100D01*
Y2641200D01*
X3359550Y2553270D01*
X3261100D01*
X3179240Y2471400D01*
X3176230Y2472450D01*
G03X3066980Y2450800I-36180J-103900D01*
G02X3050070Y2458390I-6750J7593D01*
G37*
G36*
G01X3593700Y3416870D02*
X3460350Y3550220D01*
X3346060D01*
X3329240Y3567040D01*
G02X3335820Y3584360I7187J7180D01*
G01Y3801650D01*
G02X3351040Y3810460I10158J2D01*
G03X3437730Y3814960I39860J69389D01*
G02X3453830Y3806720I5941J-8240D01*
G01Y3715150D01*
X3699820Y3469160D01*
G02X3692980Y3451820I-7184J-7185D01*
G03X3629550Y3416870I2721J-79971D01*
G01X3593700D01*
G37*
G36*
G01X3872170Y3265710D02*
G03X3835720Y3316380I-78039J-17693D01*
G01Y3460600D01*
X3543870Y3752450D01*
Y4069950D01*
X3464150Y4149670D01*
X3451420D01*
Y4166420D01*
X3448870D01*
Y4270570D01*
X3205930D01*
Y4255070D01*
X3183420D01*
Y4311600D01*
X4395360D01*
G02X4401950Y4293710I-4J-10160D01*
G03X4412380Y4118500I71450J-83662D01*
G02Y4101600I-5637J-8450D01*
G03Y3918500I61020J-91550D01*
G02Y3901600I-5637J-8450D01*
G03X4371370Y3851220I61018J-91551D01*
G01X4340420D01*
Y3867970D01*
X4219380D01*
Y3625030D01*
X4234880D01*
Y3384140D01*
X4185060Y3334320D01*
X3962810D01*
X3889260Y3260770D01*
G02X3872170Y3265710I-7182J7185D01*
G37*
G36*
G01X4470010Y1137220D02*
X4349360Y1257870D01*
X3871350D01*
X3851720Y1277500D01*
Y1441520D01*
X3666680D01*
Y1304670D01*
G02X3649340Y1297480I-10159J-4D01*
G01X3645470Y1301350D01*
Y1760680D01*
X3666680D01*
Y1606480D01*
X3851720D01*
Y1760680D01*
X3878120D01*
Y1784480D01*
X4634520D01*
Y2144520D01*
X4633770D01*
Y2347770D01*
X3932380D01*
Y2321570D01*
X3827650D01*
X3758600Y2252520D01*
X3596920D01*
G02X3592120Y2271630I5J10159D01*
G03X3604680Y2457590I-52068J96921D01*
G02X3603460Y2472990I5967J8221D01*
G01X3835970Y2705500D01*
Y2991240D01*
X4006460Y3161730D01*
X4101280D01*
Y3146230D01*
X4344220D01*
Y3161730D01*
X4374560D01*
G03X4412380Y3118500I98844J48315D01*
G02Y3101600I-5637J-8450D01*
G03X4576340Y2971230I61017J-91549D01*
G01X4615630D01*
Y2955730D01*
X4735030D01*
Y2860480D01*
X4751780D01*
Y2815980D01*
X4775660Y2792100D01*
Y2713180D01*
X4892480D01*
Y2661220D01*
X4805220D01*
Y2697020D01*
X4681680D01*
Y2535380D01*
X4805220D01*
Y2571180D01*
X4892480D01*
Y2558230D01*
X5013520D01*
Y2694380D01*
X5022230D01*
G02X5032310Y2683000I-5J-10158D01*
G03X5164100Y2612830I79437J-9651D01*
G01X5258190D01*
G02X5267730Y2599190I-4J-10159D01*
G03X5404670Y2622620I75169J-27439D01*
G01Y2733870D01*
X5273170D01*
G02X5265980Y2751210I-4J10159D01*
G01X5511400Y2996630D01*
X5714710D01*
G03X5776580Y2923540I127291J45020D01*
G02Y2905760I-4923J-8890D01*
G03X5907420I65420J-118110D01*
G02Y2923540I4923J8890D01*
G03X5960110Y2976230I-65420J118110D01*
G02X5977890I8890J-4923D01*
G03X6210040Y2969360I118113J65420D01*
G02X6228780Y2963920I8581J-5438D01*
G01Y2414670D01*
X5960980D01*
Y2359670D01*
X5950780D01*
X5949260Y2361660D01*
G03X5761980Y2170900I-107261J-82007D01*
G01Y1954400D01*
X5844530Y1871850D01*
Y1519050D01*
X5739800Y1414320D01*
X5544150D01*
X5407670Y1550800D01*
Y1640030D01*
X5433870D01*
Y1852470D01*
X5024580D01*
Y1724910D01*
X5004710Y1705040D01*
G02X4987370Y1712230I-7180J7188D01*
G01Y1942070D01*
X4677330D01*
Y1726910D01*
X4651930Y1701510D01*
Y1632970D01*
X4634520D01*
Y1644520D01*
X3874480D01*
Y1284480D01*
X4537130D01*
Y1235270D01*
X4520380D01*
Y1137220D01*
X4470010D01*
G37*
G36*
G01X3848100Y1790700D02*
X3651250D01*
Y2025650D01*
X3644900Y2032000D01*
X3517900D01*
Y2222500D01*
X3848100D01*
Y1790700D01*
G37*
G36*
G01X3720370Y3279040D02*
G03X3776440Y3169980I73761J-31021D01*
G02X3781380Y3152890I-2245J-9908D01*
G01X3682430Y3053940D01*
Y2774600D01*
X3554860Y2647030D01*
G02X3537520Y2654220I-7181J7186D01*
G01Y3321180D01*
G02X3554860Y3328370I10159J4D01*
G01X3556400Y3326830D01*
X3629550D01*
G03X3709280Y3292990I66154J45019D01*
G02X3720370Y3279040I1723J-10013D01*
G37*
G36*
G01X4901440Y990550D02*
G02X4894250Y1007890I-4J10159D01*
G01X4981520Y1095160D01*
Y1114230D01*
X4998270D01*
Y1235270D01*
X4981520D01*
Y1287050D01*
X4961970Y1306600D01*
Y1395470D01*
X4841930D01*
Y1210430D01*
X4874730D01*
Y1115710D01*
X4832740Y1073720D01*
X4705220D01*
G02X4698030Y1091060I-4J10159D01*
G01X4721200Y1114230D01*
X4763320D01*
Y1210430D01*
X4771970D01*
Y1395470D01*
X4651930D01*
Y1235270D01*
X4627170D01*
Y1284480D01*
X4634520D01*
Y1512930D01*
X4651930D01*
Y1480430D01*
X4961970D01*
Y1546530D01*
X5015960D01*
X5109460Y1640030D01*
X5247630D01*
Y1484500D01*
X5430980Y1301150D01*
Y1201880D01*
X5852970D01*
Y1301150D01*
X6004570Y1452750D01*
Y1938150D01*
X5922020Y2020700D01*
Y2170900D01*
G03X5949260Y2197640I-80015J108756D01*
G01X5950780Y2199630D01*
X5960980D01*
Y2144630D01*
X5970190D01*
G02X5976500Y2126500I7J-10161D01*
G03X6092300Y2018730I49645J-62755D01*
G01X6197200D01*
X6318820Y2140350D01*
Y3136500D01*
X6217880Y3237440D01*
X6219300Y3240630D01*
G03X6161420Y3413760I-123300J55019D01*
G02Y3431540I4923J8890D01*
G03Y3667760I-65420J118110D01*
G02Y3685540I4923J8890D01*
G03X6037820Y3925490I-65420J118110D01*
G01X5949550Y4013770D01*
X5641450D01*
G03X5496340Y3981730I-66151J-45022D01*
G02X5479130Y3976200I-10024J1652D01*
G01X5473310Y3982020D01*
X5430070D01*
Y3997520D01*
X5342120D01*
Y4117920D01*
X5182020D01*
Y4187880D01*
X5342120D01*
Y4311600D01*
X6477060D01*
Y990550D01*
X4901440D01*
G37*
G36*
G01X4899200Y2801170D02*
Y2874820D01*
X4858570D01*
Y3079180D01*
X4984350D01*
X5039620Y3134450D01*
X5042170Y3134050D01*
G03X5066920Y3292170I12430J79051D01*
G01X5062620Y3292840D01*
Y3343080D01*
X5069370D01*
Y3470830D01*
X5072770D01*
Y3590870D01*
X4887730D01*
Y3529000D01*
X4875910Y3517180D01*
G02X4858570Y3524370I-7181J7186D01*
G01Y3625780D01*
G03X4876630Y3671100I-61768J50873D01*
G01X4876960Y3675830D01*
X4887730D01*
Y3660830D01*
X5072770D01*
Y3780870D01*
X4890610D01*
X4854810Y3816670D01*
X4740470D01*
Y3931470D01*
X4619430D01*
X4616760Y3930360D01*
X4576220Y3970900D01*
G03X4534420Y4101600I-102820J39151D01*
G02Y4118500I5637J8450D01*
G03X4573790Y4165030I-61019J91550D01*
G01X4595250D01*
X4615630Y4144650D01*
Y4086030D01*
X4858570D01*
Y4101530D01*
X4887080D01*
Y4092880D01*
X5071980D01*
Y3997520D01*
X5065230D01*
Y3876480D01*
X5071980D01*
Y3860860D01*
X5158810Y3774030D01*
X5425520D01*
X5533470Y3666080D01*
X5590510D01*
X5591010Y3661560D01*
G03X5657580Y3591340I79540J8741D01*
G02X5663110Y3574130I-1653J-10024D01*
G01X5636650Y3547670D01*
X5451670D01*
Y3683820D01*
X5342770D01*
Y3685870D01*
X5157730D01*
Y3470830D01*
X5171070D01*
G02X5179990Y3455810I2J-10158D01*
G03X5316400Y3372480I70252J-38314D01*
G01X5701500D01*
X5720160Y3353830D01*
G03X5776580Y3177540I121841J-58179D01*
G02Y3159760I-4923J-8890D01*
G03X5714710Y3086670I65421J-118110D01*
G01X5474100D01*
X5207400Y2819970D01*
X5029600D01*
X5010800Y2801170D01*
X4899200D01*
G37*
G54D10*
X2559050Y1504950D03*
Y3994150D03*
G54D11*
G01X3352800Y2063750D02*
X3295650Y2120900D01*
X3161410D01*
X2940050Y2342260D01*
Y2368550D01*
G01D02*
Y2495550D01*
X3073400Y2628900D01*
Y2810050D01*
G01X3587750Y2108200D02*
X3397250D01*
X3352800Y2063750D01*
G01X3613150Y2133600D02*
X3600450Y2120900D01*
G01D02*
X3587750Y2108200D01*
G01X4025900Y2241550D02*
X3860800D01*
X3752850Y2133600D01*
G01X4025900Y2241550D02*
Y2070100D01*
X4131500Y1964500D01*
X4197350D01*
G01Y2241550D02*
X4025900D01*
G01X4368800D02*
Y1964500D01*
X4254500D01*
G01X4197350D02*
X4254500D01*
G01X4197350Y2241550D02*
Y1964500D01*
G01X4368800Y2241550D02*
X4197350D01*
G01X4540250D02*
X4368800D01*
G01X4540250D02*
Y2057400D01*
G01X5537200Y1308100D02*
X5327650Y1517650D01*
Y1746250D01*
G01D02*
X5130800D01*
G01X5746750Y1308100D02*
X5537200D01*
G01X5842000Y2279650D02*
Y1987550D01*
X5924550Y1905000D01*
Y1485900D01*
X5746750Y1308100D01*
G01X6096000Y2279650D02*
X5842000D01*
X2286000Y1066800D03*
X2279650Y1898650D03*
Y2286000D03*
Y2609850D03*
X2324100Y3676650D03*
X2578100Y2609850D03*
X2952750Y1066800D03*
X2870200Y2190750D03*
X2921000Y2692400D03*
X2901950Y4248150D03*
X3352800Y1422400D03*
X3206750D03*
X3225800Y1835150D03*
X3359150D03*
X3086100Y1987550D03*
X3206750Y2660650D03*
X3308350Y3175000D03*
X3651250Y1060450D03*
X3498850Y1270000D03*
Y1422400D03*
X3492500Y1835150D03*
X3613150Y2133600D03*
X3390900Y2660650D03*
X3594100Y2768600D03*
Y3270250D03*
X3390900D03*
Y3079750D03*
X3695700Y3371850D03*
X3511550Y3581400D03*
X3683000Y3689350D03*
X3600450Y3486150D03*
X3606800Y3854450D03*
X3390900Y3879850D03*
X3498850Y4216400D03*
X3594100Y4057650D03*
X3937000Y1708150D03*
X3752850Y1866900D03*
Y1993900D03*
Y2133600D03*
Y2540000D03*
X3975100Y2628900D03*
X3873500Y2482850D03*
X3846180Y2634510D03*
X3911600Y2990850D03*
X3917950Y2863850D03*
X4038600Y2736850D03*
X3917950D03*
X4038600Y2863850D03*
X3794130Y3248020D03*
X3937000Y3384550D03*
X3816350Y3562350D03*
X3765550Y4248150D03*
X4032250D03*
X4216400Y2628900D03*
X4095750D03*
X4159250Y2736850D03*
X4318000Y2965450D03*
Y3092450D03*
X4191000D03*
X4171950Y3397250D03*
Y3581400D03*
X4305300Y3937000D03*
X4165600Y3822700D03*
X4292600Y4248150D03*
X4540250Y1708150D03*
X4686300Y2019300D03*
X4692650Y2432050D03*
X5016500Y1365250D03*
X4806950Y1428750D03*
X5016500Y1492250D03*
X4953000Y2019300D03*
X4832350D03*
X5041900Y2241550D03*
X4813300Y2432050D03*
X4933950D03*
X4959350Y3016250D03*
Y2870200D03*
X4902200Y3270250D03*
X4796800Y3676650D03*
X4908550Y3848100D03*
X4718050Y4019550D03*
X4826000Y4260850D03*
X5372100Y1174750D03*
X5200650D03*
Y1365250D03*
X5054600Y1174750D03*
X5194300Y1587500D03*
X5251450Y1917700D03*
X5054600D03*
X5321300Y2241550D03*
X5181600Y2381250D03*
X5187950Y2241550D03*
X5342900Y2571750D03*
X5060950Y2432050D03*
X5111750Y2673350D03*
X5181600Y2870200D03*
X5353050Y3086100D03*
X5137150Y3105150D03*
X5054600Y3213100D03*
X5250250Y3417500D03*
X5105400Y3625850D03*
X5562600Y1473200D03*
X5664200Y1809750D03*
X5454650Y1917700D03*
X5537200Y1809750D03*
X5702300Y1962150D03*
X5562600Y2057400D03*
X5473700Y2540000D03*
X5683250Y2641600D03*
X5568950D03*
X5600700Y2413000D03*
X5562600Y2794000D03*
X5556250Y2940050D03*
X5384800Y2794000D03*
X5549900Y3314700D03*
X5562600Y3143250D03*
X5670550Y3670300D03*
X5543550Y3600450D03*
X5575300Y3968750D03*
X5664200Y4248150D03*
X5403850Y4064000D03*
X5397500Y4254500D03*
X5670550Y4089400D03*
X5969000Y1339850D03*
X5905500Y1174750D03*
X5727700Y1479550D03*
X5791200Y1809750D03*
X6026150Y2063750D03*
X5937250Y4248150D03*
Y4095750D03*
X6273800Y1308100D03*
X6159500Y1200150D03*
X6305550Y1625600D03*
X6064250D03*
X6184900Y1771650D03*
X6064250Y1930400D03*
X6305550D03*
X6381750Y3632200D03*
Y3416300D03*
Y3854450D03*
X6203950Y4095750D03*
X6400800Y2940050D03*
Y3117850D03*
Y4248150D03*
G54D20*
X4254500Y1464500D03*
Y1964500D03*
G54D30*
G01X4461700Y1464500D02*
X4254500D01*
G01X4711950Y1572950D02*
X4570150D01*
X4461700Y1464500D01*
G01X4806950Y1572950D02*
X4901950D01*
G01X5130800Y1746250D02*
X4991100Y1606550D01*
X4908550D01*
X4901950Y1599950D01*
Y1572950D01*
G01X4711950D02*
Y1676650D01*
X4832350Y1797050D01*
G54D12*
X2343150Y3054350D03*
Y2774950D03*
Y3282950D03*
Y3511550D03*
X2571750Y3054350D03*
Y2774950D03*
Y3282950D03*
Y3511550D03*
G54D21*
X4025900Y2241550D03*
Y2470150D03*
X4368800Y2241550D03*
X4197350D03*
X4368800Y2470150D03*
X4197350D03*
X4540250Y2241550D03*
Y2470150D03*
G54D31*
G01X3289300Y2806700D02*
X3076750D01*
X3073400Y2810050D01*
G54D13*
X2940050Y2368550D03*
X3073400Y4210050D03*
G54D22*
X4646930Y2794000D03*
X4743450Y2616200D03*
X4837430Y2794000D03*
G54D14*
X2768600Y2658100D03*
Y2777500D03*
X3270250Y3985250D03*
Y4104650D03*
X3390900Y3985250D03*
Y4104650D03*
X4279900Y3686800D03*
Y3806200D03*
X4679950Y3750300D03*
Y3869700D03*
X4953000Y2620000D03*
Y2739400D03*
X5391150Y3502650D03*
Y3622050D03*
G54D23*
X4806950Y1302950D03*
X4711950D03*
X4901950D03*
X4806950Y1572950D03*
X4711950D03*
X4901950D03*
G54D15*
X3073400Y2810050D03*
Y3010050D03*
Y3210050D03*
Y3410050D03*
Y3610050D03*
Y3810050D03*
Y4010050D03*
X3340050Y2368550D03*
X3140050D03*
X3740050D03*
X3540050D03*
X4473400Y3010050D03*
Y2810050D03*
Y3410050D03*
Y3210050D03*
Y3610050D03*
Y4010050D03*
Y3810050D03*
Y4210050D03*
G54D24*
X4980250Y3530850D03*
Y3720850D03*
X4979600Y4152900D03*
Y4247900D03*
Y4057900D03*
X5250250Y3625850D03*
Y3530850D03*
Y3720850D03*
X5249600Y4247900D03*
Y4057900D03*
G54D25*
X5327650Y1746250D03*
X5130800D03*
X5327650Y2076450D03*
X5130800D03*
X5746750Y1308100D03*
X5537200D03*
X5746750Y1638300D03*
X5537200D03*
G54D16*
X2872750Y3054350D03*
X2753350D03*
X2872750Y3213100D03*
X2753350D03*
X2872750Y3365500D03*
X2753350D03*
X2872750Y3473450D03*
X2753350D03*
X2872750Y3581400D03*
X2753350D03*
X3274050Y3644900D03*
Y3409950D03*
Y3752850D03*
X3267700Y4210050D03*
X3393450Y3644900D03*
Y3409950D03*
Y3752850D03*
X3387100Y4210050D03*
X4124950Y1117600D03*
X4244350D03*
X4282450Y3206750D03*
X4163050D03*
X4582150Y1174750D03*
X4701550D03*
X4677400Y3016250D03*
Y2921000D03*
Y3111500D03*
Y3244850D03*
Y3340100D03*
Y3568700D03*
Y3435350D03*
Y4146550D03*
X4936500Y1174750D03*
X4817100D03*
X4796800Y3016250D03*
Y2921000D03*
Y3111500D03*
Y3244850D03*
Y3340100D03*
X5007600Y3403600D03*
X4796800Y3568700D03*
Y3435350D03*
X5007600Y3937000D03*
X4796800Y4146550D03*
X5342900Y2673350D03*
X5223500D03*
X5127000Y3403600D03*
Y3937000D03*
X5248900D03*
X5368300D03*
G54D26*
X5842000Y2279650D03*
Y2533650D03*
X6096000D03*
X5842000Y3041650D03*
X6096000D03*
X5842000Y2787650D03*
X6096000D03*
X5842000Y3295650D03*
X6096000D03*
X5842000Y3549650D03*
X6096000D03*
X5842000Y3803650D03*
X6096000D03*
G54D17*
X3352800Y1633750D03*
Y2063750D03*
X4832350Y1797050D03*
Y2227050D03*
G54D18*
X3289300Y2806700D03*
Y2959100D03*
G54D27*
X6096000Y2279650D03*
G54D28*
G01X2343150Y3397250D02*
X2666990D01*
X2698740Y3365500D01*
X2753350D01*
G01Y3581400D02*
X2708900Y3625850D01*
X2438390D01*
X2400300Y3587760D01*
Y3517900D01*
X2393950Y3511550D01*
X2343150D01*
G01X2768600Y2777500D02*
X2574300D01*
X2571750Y2774950D01*
G01X2753350Y3054350D02*
X2571750D01*
G01Y3282950D02*
X2609850Y3244850D01*
X2721600D01*
X2753350Y3213100D01*
G01Y3473450D02*
X2609850D01*
X2571750Y3511550D01*
G01X2872750Y3054350D02*
X3029100D01*
X3073400Y3010050D01*
G01X2872750Y3213100D02*
X3070350D01*
X3073400Y3210050D01*
G01X2872750Y3473450D02*
X2936800D01*
X3073400Y3610050D01*
G01X2872750Y3365500D02*
X3028850D01*
X3073400Y3410050D01*
G01X2872750Y3581400D02*
Y3641100D01*
X3041700Y3810050D01*
X3073400D01*
G01X3393450Y3409950D02*
X3416300D01*
X3492500Y3333750D01*
Y2622550D01*
X3378200Y2508250D01*
X3279750D01*
X3140050Y2368550D01*
G01X4279900Y3686800D02*
Y3365490D01*
X4203710Y3289300D01*
X3981460D01*
X3727450Y3035290D01*
Y2755950D01*
X3340050Y2368550D01*
G01X3274050Y3409950D02*
X3073500D01*
X3073400Y3410050D01*
G01X3274050Y3644900D02*
Y3558560D01*
X3327410Y3505200D01*
X3441700D01*
X3575050Y3371850D01*
X3695700D01*
G01X3274050Y3644900D02*
Y3752850D01*
G01X3270250Y3985250D02*
Y3756650D01*
X3274050Y3752850D01*
G01X3073400Y4010050D02*
X3121040D01*
X3215640Y4104650D01*
X3270250D01*
G01X3267700Y4210050D02*
X3073400D01*
G01X3600450Y2120900D02*
Y1282700D01*
X3765550Y1117600D01*
X4124950D01*
G01X3540050Y2368550D02*
Y2473250D01*
X3790950Y2724150D01*
Y3009890D01*
X3987810Y3206750D01*
X4163050D01*
G01X3390900Y4104650D02*
X3445500D01*
X3498850Y4051300D01*
Y3733800D01*
X3790700Y3441950D01*
Y3251450D01*
X3794130Y3248020D01*
G01X3390900Y3879850D02*
Y3985250D01*
G01X3387100Y4210050D02*
Y4108450D01*
X3390900Y4104650D01*
G01X4701550Y1174750D02*
Y1158250D01*
X4635500Y1092200D01*
X4451360D01*
X4330710Y1212850D01*
X3852700D01*
X3803650Y1261900D01*
Y1339850D01*
X3782000Y1361500D01*
X3759200D01*
G01Y1686500D02*
Y1860550D01*
G01D02*
X3752850Y1866900D01*
G01X4936500Y1174750D02*
Y1113810D01*
X4851390Y1028700D01*
X4333250D01*
X4244350Y1117600D01*
G01X4282450Y3206750D02*
X4470100D01*
X4473400Y3210050D01*
G01X4279900Y3806200D02*
X4469550D01*
X4473400Y3810050D01*
G01X4582150Y1174750D02*
Y1344050D01*
X4461700Y1464500D01*
G01X4677400Y3016250D02*
X4479600D01*
X4473400Y3010050D01*
G01X4677400Y3111500D02*
X4571950D01*
X4473400Y3210050D01*
G01X4677400Y3340100D02*
X4552950D01*
X4483000Y3410050D01*
X4473400D01*
G01X4677400Y3244850D02*
Y3237390D01*
X4796800Y3117990D01*
Y3111500D01*
G01X4677400Y3435350D02*
Y3442810D01*
X4796800Y3562210D01*
Y3568700D01*
G01X4473400Y3610050D02*
X4636050D01*
X4677400Y3568700D01*
G01X4679950Y3750300D02*
X4688850Y3759200D01*
X4744990D01*
X4757440Y3771650D01*
X4836160D01*
X4886960Y3720850D01*
X4980250D01*
G01X4679950Y3869700D02*
X4613750D01*
X4473400Y4010050D01*
G01X4677400Y4146550D02*
X4613900Y4210050D01*
X4473400D01*
G01X4701550Y1174750D02*
Y1292550D01*
X4711950Y1302950D01*
G01X4936500Y1174750D02*
Y1268400D01*
X4901950Y1302950D01*
G01X4743450Y2616200D02*
X4949200D01*
X4953000Y2620000D01*
G01X4796800Y2921000D02*
Y2834630D01*
X4837430Y2794000D01*
G01X4796800Y3016250D02*
Y2921000D01*
G01X5842000Y3041650D02*
X5492750D01*
X5226050Y2774950D01*
X5048250D01*
X5012700Y2739400D01*
X4953000D01*
G01X4796800Y3244850D02*
Y3340100D01*
G01X4902200Y3270250D02*
X4889500Y3257550D01*
X4809500D01*
X4796800Y3244850D01*
G01Y3111500D02*
X4809500Y3124200D01*
X4965700D01*
X5054600Y3213100D01*
G01X4796800Y3568700D02*
Y3676650D01*
G01Y3435350D02*
X4857750D01*
X4953250Y3530850D01*
X4980250D01*
G01X4796800Y4146550D02*
X4973250D01*
X4979600Y4152900D01*
G01Y4247900D02*
X4838950D01*
X4826000Y4260850D01*
G01X5342900Y2673350D02*
Y2571750D01*
G01X5223500Y2673350D02*
X5111750D01*
G01X5391150Y3622050D02*
X5254050D01*
X5250250Y3625850D01*
G01Y3530850D02*
Y3417500D01*
G01X5842000Y3295650D02*
X5720150Y3417500D01*
X5250250D01*
G01X5248900Y3937000D02*
Y4057200D01*
X5249600Y4057900D01*
G01X5391150Y3502650D02*
X5655300D01*
X5702300Y3549650D01*
X5842000D01*
G01Y3803650D02*
X5588010D01*
X5454660Y3937000D01*
X5368300D01*
G01X5575300Y3968750D02*
X5930900D01*
X6096000Y3803650D01*
G01X6026150Y2063750D02*
X6178550D01*
X6273800Y2159000D01*
Y3117850D01*
X6096000Y3295650D01*
G54D19*
X3759200Y1361500D03*
Y1686500D03*
G54D29*
G01X2343150Y3054350D02*
Y2917830D01*
G01D02*
Y2774950D01*
G01Y2917830D02*
X2841620D01*
X2949400Y2810050D01*
X3073400D01*
G01X2343150Y3282950D02*
Y3397250D01*
G01Y3054350D02*
Y3282950D01*
G01Y3397250D02*
Y3511550D01*
G01X5007600Y3403600D02*
Y3260100D01*
X5054600Y3213100D01*
G01X4980250Y3530850D02*
X4990850D01*
X5007600Y3514100D01*
Y3403600D01*
G01X5127000Y3937000D02*
Y4212600D01*
X5162300Y4247900D01*
X5249600D01*
G01X5127000Y3937000D02*
Y3883650D01*
X5181600Y3829050D01*
X5448310D01*
X5556260Y3721100D01*
X5619750D01*
X5670550Y3670300D01*
M02*
