%FSLAX25Y25*MOMM*%
%IR0*IPPOS*OFA0.00000B0.00000*MIA0B0*SFA1.00000B1.00000*%
%ADD22R,.7X1.4*%
%ADD23R,1.4X.7*%
%ADD21R,.762X1.143*%
%ADD17R,.9144X1.016*%
%ADD18R,1.5X1.2*%
%ADD19R,7.2X3.2*%
%ADD16R,2.6X2.4*%
%ADD25C,2.3*%
%ADD13R,.7X.7*%
%ADD15R,.7X.7*%
%ADD14C,1.7*%
%ADD10C,6.2*%
%ADD26R,2.3X2.3*%
%ADD12R,1.7X1.7*%
%ADD20R,1.4224X1.6764*%
%ADD11R,1.6764X1.4224*%
%ADD24R,1.6764X1.6764*%
%LPD*%
G75*
G54D10*
X2559050Y1504950D03*
Y3994150D03*
G54D11*
X2343150Y3054350D03*
Y2774950D03*
Y3282950D03*
Y3511550D03*
X2571750Y3054350D03*
Y2774950D03*
Y3282950D03*
Y3511550D03*
G54D20*
X4025900Y2241550D03*
Y2470150D03*
X4368800Y2241550D03*
X4197350D03*
X4368800Y2470150D03*
X4197350D03*
X4540250Y2241550D03*
Y2470150D03*
G54D12*
X2940050Y2368550D03*
X3073400Y4210050D03*
G54D21*
X4646930Y2794000D03*
X4743450Y2616200D03*
X4837430Y2794000D03*
G54D13*
X2768600Y2658100D03*
Y2777500D03*
X3270250Y3985250D03*
Y4104650D03*
X3390900Y3985250D03*
Y4104650D03*
X4279900Y3686800D03*
Y3806200D03*
X4679950Y3750300D03*
Y3869700D03*
X4953000Y2620000D03*
Y2739400D03*
X5391150Y3502650D03*
Y3622050D03*
G54D22*
X4806950Y1302950D03*
X4711950D03*
X4901950D03*
X4806950Y1572950D03*
X4711950D03*
X4901950D03*
G54D14*
X3073400Y2810050D03*
Y3010050D03*
Y3210050D03*
Y3410050D03*
Y3610050D03*
Y3810050D03*
Y4010050D03*
X3340050Y2368550D03*
X3140050D03*
X3740050D03*
X3540050D03*
X4473400Y3010050D03*
Y2810050D03*
Y3410050D03*
Y3210050D03*
Y3610050D03*
Y4010050D03*
Y3810050D03*
Y4210050D03*
G54D23*
X4980250Y3530850D03*
Y3720850D03*
X4979600Y4152900D03*
Y4247900D03*
Y4057900D03*
X5250250Y3625850D03*
Y3530850D03*
Y3720850D03*
X5249600Y4247900D03*
Y4057900D03*
G54D24*
X5327650Y1746250D03*
X5130800D03*
X5327650Y2076450D03*
X5130800D03*
X5746750Y1308100D03*
X5537200D03*
X5746750Y1638300D03*
X5537200D03*
G54D15*
X2872750Y3054350D03*
X2753350D03*
X2872750Y3213100D03*
X2753350D03*
X2872750Y3365500D03*
X2753350D03*
X2872750Y3473450D03*
X2753350D03*
X2872750Y3581400D03*
X2753350D03*
X3274050Y3644900D03*
Y3409950D03*
Y3752850D03*
X3267700Y4210050D03*
X3393450Y3644900D03*
Y3409950D03*
Y3752850D03*
X3387100Y4210050D03*
X4124950Y1117600D03*
X4244350D03*
X4282450Y3206750D03*
X4163050D03*
X4582150Y1174750D03*
X4701550D03*
X4677400Y3016250D03*
Y2921000D03*
Y3111500D03*
Y3244850D03*
Y3340100D03*
Y3568700D03*
Y3435350D03*
Y4146550D03*
X4936500Y1174750D03*
X4817100D03*
X4796800Y3016250D03*
Y2921000D03*
Y3111500D03*
Y3244850D03*
Y3340100D03*
X5007600Y3403600D03*
X4796800Y3568700D03*
Y3435350D03*
X5007600Y3937000D03*
X4796800Y4146550D03*
X5342900Y2673350D03*
X5223500D03*
X5127000Y3403600D03*
Y3937000D03*
X5248900D03*
X5368300D03*
G54D25*
X5842000Y2279650D03*
Y2533650D03*
X6096000D03*
X5842000Y3041650D03*
X6096000D03*
X5842000Y2787650D03*
X6096000D03*
X5842000Y3295650D03*
X6096000D03*
X5842000Y3549650D03*
X6096000D03*
X5842000Y3803650D03*
X6096000D03*
G54D16*
X3352800Y1633750D03*
Y2063750D03*
X4832350Y1797050D03*
Y2227050D03*
G54D26*
X6096000Y2279650D03*
G54D17*
X3289300Y2806700D03*
Y2959100D03*
G54D18*
X3759200Y1361500D03*
Y1686500D03*
G54D19*
X4254500Y1464500D03*
Y1964500D03*
M02*
