M48
METRIC
T01C.5
T02C.8
T03C1.
T04C3.3
%
G90
T01
X022860Y010668
X029528Y010668
X032068Y014224
X033528Y014224
X034988Y012700
X034988Y014224
X036513Y010604
X048069Y014288
X050165Y013653
X050165Y014922
X050546Y011748
X052007Y011748
X052007Y013653
X053721Y011748
X055626Y014732
X057277Y014795
X059055Y011748
X059690Y013399
X061595Y012002
X062738Y013081
X063056Y019304
X063056Y016256
X061849Y017716
X060643Y019304
X060643Y016256
X060262Y020638
X057912Y018097
X057023Y019622
X056642Y018097
X055626Y020574
X055372Y018097
X054547Y019177
X053213Y022416
X052514Y019177
X051943Y015875
X051880Y022416
X050546Y019177
X050419Y022416
X049530Y020193
X048324Y020193
X046863Y020193
X045403Y017081
X039370Y017081
X037528Y018669
X037528Y019939
X037528Y021336
X036132Y021336
X034925Y018351
X033591Y018351
X032258Y018351
X030861Y019875
X028702Y021907
X022796Y018986
X022796Y026098
X022796Y022860
X025781Y026098
X029210Y026924
X032068Y026607
X033909Y026607
X035941Y027686
X037528Y025400
X038462Y026345
X038735Y024829
X039116Y029909
X039180Y028639
X039180Y027368
X039751Y026289
X040386Y027368
X040386Y028639
X040958Y026289
X041592Y027368
X042164Y026289
X043180Y029654
X046926Y024320
X048133Y024320
X049340Y024320
X049593Y028702
X049593Y030163
X050610Y024320
X051118Y026733
X051816Y023812
X051816Y028702
X053429Y025718
X053848Y027940
X054737Y025400
X055562Y029400
X055626Y027940
X055689Y026416
X056007Y024130
X056833Y026416
X064008Y029400
X064008Y031178
X063818Y036322
X063818Y034163
X056706Y036703
X055626Y031433
X055499Y033147
X055436Y036005
X053530Y030861
X052502Y034175
X051371Y031052
X051054Y036258
X050546Y032131
X049022Y032702
X047968Y036766
X043180Y030924
X041910Y030924
X041720Y035814
X041720Y033972
X039370Y033846
X038164Y035624
X037941Y032480
X036957Y033718
X036830Y036894
X036005Y034861
X035941Y032702
X035116Y035814
X033909Y030798
X033909Y032702
X033083Y031750
X023241Y036766
X029020Y042481
X033909Y038799
X034988Y042164
X035941Y040576
X036068Y038544
X037655Y042481
X040322Y042481
X041656Y038227
X042926Y042481
X043053Y039370
X047181Y040195
X048260Y042609
X049085Y038481
X053975Y042545
X054039Y040640
X055753Y039688
X056642Y042481
X056706Y040894
X059373Y042481
X059373Y040958
X062040Y040958
X063818Y038544
X064008Y042481
T02
X033401Y023685
X035401Y023685
X029400Y023685
X037401Y023685
X031400Y023685
X030734Y028101
X030734Y030101
X030734Y032100
X030734Y034100
X030734Y036100
X030734Y038100
X030734Y040100
X030734Y042100
X044734Y042100
X044734Y040100
X044734Y038100
X044734Y036100
X044734Y034100
X044734Y032100
X044734Y030101
X044734Y028101
T03
X058420Y022796
X060960Y022796
X060960Y025337
X058420Y025337
X058420Y027876
X060960Y027876
X060960Y030417
X058420Y030417
X058420Y032957
X060960Y032957
X060960Y035496
X058420Y035496
X058420Y038036
X060960Y038036
T04
X025590Y015050
X025590Y039942
M30
