%FSLAX25Y25*MOMM*%
%IR0*IPPOS*OFA0.00000B0.00000*MIA0B0*SFA1.00000B1.00000*%
%ADD10C,.25*%
G75*
%LPD*%
G75*
G54D10*
G01X4940300Y1909750D02*
X4922800Y1809750D01*
X4902800Y1909750D01*
X4882800Y1809750D01*
X4865300Y1909750D01*
G01X4831550Y1809750D02*
Y1909750D01*
X4784050D01*
G01X4801550Y1861420D02*
X4831550D01*
G01X4740300Y1829750D02*
X4732800Y1818080D01*
X4722800Y1811420D01*
X4711550Y1809750D01*
X4701550Y1811420D01*
X4691550Y1819750D01*
X4685300Y1829750D01*
X4684050Y1839750D01*
X4686550Y1851410D01*
X4695300Y1859750D01*
X4704050Y1863080D01*
X4715300D01*
G01X4704050D02*
X4696550Y1868080D01*
X4690300Y1876410D01*
X4687800Y1886420D01*
X4690300Y1896420D01*
X4696550Y1904750D01*
X4707800Y1909750D01*
X4719050Y1908080D01*
X4730300Y1901420D01*
G01X4645300Y1809750D02*
Y1909750D01*
X4620300D01*
X4610300Y1904750D01*
X4602800Y1898080D01*
X4596550Y1888080D01*
X4591550Y1876410D01*
X4590300Y1859750D01*
X4591550Y1843080D01*
X4596550Y1831420D01*
X4602800Y1821410D01*
X4610300Y1814750D01*
X4620300Y1809750D01*
X4645300D01*
G01X4539050Y1843080D02*
X4506550D01*
G01X4427800Y1809750D02*
X4419050Y1811420D01*
X4409050Y1816420D01*
X4402800Y1824750D01*
X4400300Y1836420D01*
X4402800Y1848080D01*
X4410300Y1858080D01*
X4421550Y1863080D01*
X4434050D01*
X4441550Y1866420D01*
X4447800Y1874750D01*
X4450300Y1886420D01*
X4446550Y1898080D01*
X4437800Y1906420D01*
X4427800Y1909750D01*
X4417800Y1906420D01*
X4409050Y1898080D01*
X4405300Y1886420D01*
X4407800Y1874750D01*
X4414050Y1866420D01*
X4421550Y1863080D01*
X4434050D01*
X4445300Y1858080D01*
X4452800Y1848080D01*
X4455300Y1836420D01*
X4452800Y1824750D01*
X4446550Y1816420D01*
X4436550Y1811420D01*
X4427800Y1809750D01*
G01X4356550Y1893080D02*
X4349050Y1903080D01*
X4340300Y1908080D01*
X4330300Y1909750D01*
X4317800Y1906420D01*
X4309050Y1898080D01*
X4306550Y1888080D01*
X4307800Y1878080D01*
X4312800Y1869750D01*
X4337800Y1853080D01*
X4349050Y1841420D01*
X4356550Y1824750D01*
X4359050Y1809750D01*
X4306550D01*
G01X4261550Y1851410D02*
X4252800Y1863080D01*
X4245300Y1869750D01*
X4235300Y1873080D01*
X4226550Y1869750D01*
X4220300Y1863080D01*
X4215300Y1853080D01*
X4214050Y1841420D01*
X4215300Y1831420D01*
X4220300Y1821410D01*
X4227800Y1813080D01*
X4236550Y1809750D01*
X4246550Y1813080D01*
X4255300Y1823080D01*
X4260300Y1838080D01*
X4261550Y1854750D01*
X4259050Y1876410D01*
X4255300Y1888080D01*
X4249050Y1899750D01*
X4240300Y1908080D01*
X4231550Y1909750D01*
X4222800Y1906420D01*
X4216550Y1898080D01*
G01X4166550Y1851410D02*
X4157800Y1863080D01*
X4150300Y1869750D01*
X4140300Y1873080D01*
X4131550Y1869750D01*
X4125300Y1863080D01*
X4120300Y1853080D01*
X4119050Y1841420D01*
X4120300Y1831420D01*
X4125300Y1821410D01*
X4132800Y1813080D01*
X4141550Y1809750D01*
X4151550Y1813080D01*
X4160300Y1823080D01*
X4165300Y1838080D01*
X4166550Y1854750D01*
X4164050Y1876410D01*
X4160300Y1888080D01*
X4154050Y1899750D01*
X4145300Y1908080D01*
X4136550Y1909750D01*
X4127800Y1906420D01*
X4121550Y1898080D01*
G01X4064050Y1843080D02*
X4031550D01*
G01X3952800Y1809750D02*
Y1909750D01*
X3967800Y1889750D01*
G01Y1809750D02*
X3937800D01*
G01X4956300Y2161530D02*
X4951300Y2166530D01*
X4947550Y2174860D01*
X4945050Y2186530D01*
X4947550Y2196530D01*
X4952550Y2203200D01*
X4961300Y2208200D01*
X4995050D01*
Y2108200D01*
X4953800D01*
X4945050Y2114870D01*
X4940050Y2124870D01*
X4937550Y2136530D01*
X4940050Y2148200D01*
X4947550Y2158200D01*
X4956300Y2161530D01*
X4995050D01*
G01X4896300Y2108200D02*
Y2208200D01*
X4865050D01*
X4855050Y2203200D01*
X4848800Y2196530D01*
X4846300Y2183200D01*
X4848800Y2169870D01*
X4856300Y2161530D01*
X4865050Y2156530D01*
X4896300D01*
G01X4865050D02*
X4846300Y2108200D01*
G01X4803800D02*
Y2208200D01*
X4778800D01*
X4768800Y2203200D01*
X4761300Y2196530D01*
X4755050Y2186530D01*
X4750050Y2174860D01*
X4748800Y2158200D01*
X4750050Y2141530D01*
X4755050Y2129870D01*
X4761300Y2119860D01*
X4768800Y2113200D01*
X4778800Y2108200D01*
X4803800D01*
G01X4611300D02*
Y2208200D01*
X4580050D01*
X4570050Y2203200D01*
X4563800Y2196530D01*
X4561300Y2183200D01*
X4563800Y2169870D01*
X4571300Y2161530D01*
X4580050Y2156530D01*
X4611300D01*
G01X4580050D02*
X4561300Y2108200D01*
G01X4466300D02*
X4516300D01*
Y2208200D01*
X4466300D01*
G01X4486300Y2159870D02*
X4516300D01*
G01X4427550Y2208200D02*
X4396300Y2108200D01*
X4365050Y2208200D01*
G01X4301300Y2104870D02*
X4303800Y2106530D01*
Y2109870D01*
X4301300Y2111530D01*
X4298800Y2109870D01*
Y2106530D01*
X4301300Y2104870D01*
G01Y2149860D02*
X4303800Y2151530D01*
Y2154870D01*
X4301300Y2156530D01*
X4298800Y2154870D01*
Y2151530D01*
X4301300Y2149860D01*
G01X4111300Y2108200D02*
Y2208200D01*
X4126300Y2188200D01*
G01Y2108200D02*
X4096300D01*
G01X4016300Y2104870D02*
X4018800Y2106530D01*
Y2109870D01*
X4016300Y2111530D01*
X4013800Y2109870D01*
Y2106530D01*
X4016300Y2104870D01*
G01X3921300Y2108200D02*
Y2208200D01*
X3936300Y2188200D01*
G01Y2108200D02*
X3906300D01*
G01X4992550Y2273930D02*
X4982550Y2265600D01*
X4971300Y2260600D01*
X4961300D01*
X4951300Y2265600D01*
X4943800Y2273930D01*
X4940050Y2285600D01*
X4942550Y2297260D01*
X4948800Y2307270D01*
X4960050Y2313930D01*
X4975050Y2317270D01*
X4983800Y2323930D01*
X4987550Y2335600D01*
X4985050Y2347270D01*
X4978800Y2355600D01*
X4970050Y2360600D01*
X4961300D01*
X4952550Y2357270D01*
X4945050Y2348930D01*
G01X4843800Y2352270D02*
X4851300Y2357270D01*
X4860050Y2360600D01*
X4870050D01*
X4881300Y2355600D01*
X4890050Y2347270D01*
X4896300Y2337270D01*
X4901300Y2320600D01*
X4902550Y2305600D01*
X4900050Y2290600D01*
X4896300Y2280600D01*
X4888800Y2270600D01*
X4880050Y2263930D01*
X4871300Y2260600D01*
X4862550D01*
X4853800Y2263930D01*
X4846300Y2268930D01*
X4840050Y2275600D01*
G01X4802550Y2260600D02*
Y2360600D01*
G01X4750050D02*
Y2260600D01*
G01Y2310600D02*
X4802550D01*
G01X4611300Y2260600D02*
Y2360600D01*
X4580050D01*
X4570050Y2355600D01*
X4563800Y2348930D01*
X4561300Y2335600D01*
X4563800Y2322270D01*
X4571300Y2313930D01*
X4580050Y2308930D01*
X4611300D01*
G01X4580050D02*
X4561300Y2260600D01*
G01X4466300D02*
X4516300D01*
Y2360600D01*
X4466300D01*
G01X4486300Y2312270D02*
X4516300D01*
G01X4427550Y2360600D02*
X4396300Y2260600D01*
X4365050Y2360600D01*
G01X4301300Y2257270D02*
X4303800Y2258930D01*
Y2262270D01*
X4301300Y2263930D01*
X4298800Y2262270D01*
Y2258930D01*
X4301300Y2257270D01*
G01Y2302260D02*
X4303800Y2303930D01*
Y2307270D01*
X4301300Y2308930D01*
X4298800Y2307270D01*
Y2303930D01*
X4301300Y2302260D01*
G01X4111300Y2260600D02*
Y2360600D01*
X4126300Y2340600D01*
G01Y2260600D02*
X4096300D01*
G01X4016300Y2257270D02*
X4018800Y2258930D01*
Y2262270D01*
X4016300Y2263930D01*
X4013800Y2262270D01*
Y2258930D01*
X4016300Y2257270D01*
G01X3921300Y2260600D02*
Y2360600D01*
X3936300Y2340600D01*
G01Y2260600D02*
X3906300D01*
M02*
